Tucker and Dale vs Evil (2010) DivX HQ AC3 DD5.1 (Externe Subs) TBS


 	
Canada
Horror / Komedie
86 minuten

geregisseerd door Eli Craig
met Alan Tudyk, Katrina Bowden en Tyler Labine

Twee vrienden zijn op vakantie in de bossen. Dan worden ze plotseling door een groep schoolkinderen, die naast hun hut kampeert, beschuldigd van moord en worden de twee opgejaagd door de groep. Hierdoor loopt hun vakantie totaal uit de hand en zullen ze zichzelf moeten zien te redden in de bossen. De twee redden één van de kinderen van de verdrinkingsdood, maar desondanks blijft de groep het tweetal opjagen.

Storyline

Two lovable West Virginian hillbillies, are headed to their \"fixer-upper\" vacation cabin to drink some beer, do some fishin\', and have a good time. But when they run into a group of preppy college kids who assume from their looks that they must be in-bred, chainsaw wielding killers, Tucker & Dale\'s vacation takes a bloody & hilarious turn for the worse. 

SOURCE..........: Tucker and Dale vs Evil 2010 DVDRip XVID AC3 HQ Hive-CM8
SIZE............: 1.45GB
FORM............: AVI
VIDEO CODEC.....: XVID
BITRATE.........: 2004 Kbit/s
WIDTH & HEIGHT..: 720 X 320
FRAMES/S........: 25.000 Fps
AUDIO...........: English
AUDIO CODE......: AC3
BITRATE.........: 448kbps
CHANNELS........: 5
SAMPLING........: 48.0 kHz
Subtitles.......: Dutch srt
Cover en label..: Yes meegepost.
Vertaling.......: SRT
Category........: Video
Format..........: DivX
Source..........: Retail
Subtitle........: Dutch subs optional
Language........: English audio
 	
General

Format                           : AVI
Format/Info                      : Audio Video Interleave
File size                        : 1.45 GiB
Duration                         : 1h 24mn
Overall bit rate                 : 2 451 Kbps
Writing application              : VirtualDubMod 1.5.10.2 (build 2542/release)
Writing library                  : VirtualDubMod build 2542/release

Video
ID                               : 0
Format                           : MPEG-4 Visual
Format profile                   : Advanced Simple@L5
Format settings, BVOP            : Yes
Format settings, QPel            : No
Format settings, GMC             : No warppoints
Format settings, Matrix          : Default (H.263)
Muxing mode                      : Packed bitstream
Codec ID                         : XVID
Codec ID/Hint                    : XviD
Duration                         : 1h 24mn
Bit rate                         : 1 995 Kbps
Width                            : 720 pixels
Height                           : 320 pixels
Display aspect ratio             : 2.25:1
Frame rate                       : 25.000 fps
Color space                      : YUV
Chroma subsampling               : 4:2:0
Bit depth                        : 8 bits
Scan type                        : Progressive
Bits/(Pixel*Frame)               : 0.346
Stream size                      : 1.18 GiB (81%)
Writing library                  : XviD 62

Audio
ID                               : 1
Format                           : AC-3
Format/Info                      : Audio Coding 3
Mode extension                   : CM (complete main)
Codec ID                         : 2000
Duration                         : 1h 24mn
Bit rate mode                    : Constant
Bit rate                         : 448 Kbps
Channel(s)                       : 6 channels
Channel positions                : Front: L C R, Side: L R, LFE
Sampling rate                    : 48.0 KHz
Bit depth                        : 16 bits
Stream size                      : 272 MiB (18%)
Alignment                        : Split accross interleaves
Interleave, duration             : 64 ms (1.60 video frames)
Interleave, preload duration     : 500 ms

 
http://www.moviemeter.nl/film/61322   
http://www.imdb.com/title/tt1465522